<svg xmlns="http://www.w3.org/2000/svg" width="128" height="128" viewBox="0 0 24 24"><mask id="a"><g fill="none" stroke="#fff" stroke-linecap="round" stroke-linejoin="round" stroke-width="2"><path fill="#fff" stroke="none" d="M16.6 5.82A4.292 4.292 0 0 1 15.54 3h-3.09v12.4c-.02.67-.31 1.31-.79 1.77-.48.47-1.13.73-1.8.73-1.42 0-2.6-1.16-2.6-2.6 0-1.72 1.66-3.01 3.37-2.48V9.66c-3.45-.46-6.47 2.22-6.47 5.64 0 3.33 2.76 5.7 5.69 5.7 3.14 0 5.69-2.55 5.69-5.7V9.01c1.25.9 2.76 1.38 4.3 1.38V7.3s-1.88.09-3.24-1.48Z"/><path stroke="#000" stroke-dasharray="36" stroke-dashoffset="72" stroke-width="4" d="M11 11h-1c-2.21 0-4.5 1.79-4.5 4S7 19.5 10 19.5c2.21 0 4-2.29 4-4.5V2.5"><animate fill="freeze" attributeName="stroke-dashoffset" dur="0.6s" values="72;36"/></path><path stroke="#000" stroke-dasharray="10" stroke-dashoffset="20" stroke-width="4" d="M18 2.5v8"><animate fill="freeze" attributeName="stroke-dashoffset" begin="0.5s" dur="0.1s" values="20;10"/></path></g></mask><path fill="#fff" d="M0 0h24v24H0z" mask="url(#a)"/></svg>